# xmcd
#
# Track frame offsets:
#	151
#	12512
#	31246
#	41218
#	55015
#	67054
#	77656
#	92414
#	108542
#	122785
#	138179
#	150539
#	165613
#	180211
#	198210
#	211117
#	225401
#	240804
#	255744
#	267568
#	285570
#	303091
#	318035
#
# Disc length: 4462
#
# Revision: 1
# Processed by: cddbd v1.5.1PL0 Copyright (c) Steve Scherf et al.
# Submitted via: audiograbber 1.83.01
# Normalized: r0:DSETVAR1
#
DISCID=22116c17
DTITLE=Various Artist - DJ LRM - R&B Fever Vol. 7
DYEAR=2004
DGENRE=R&B
TTITLE0=Ciara (Feat. Missy) - 1, 2 Step
TTITLE1=Usher (Feat. Fabolous) - Caught Up (Remix)
TTITLE2=Ashanti - Focus
TTITLE3=Mario (Feat. Juvenile) - Boom
TTITLE4=Fantasia (Feat. Missy) - Selfish ( I Want U 2 Myself)
TTITLE5=Mariah Carey (Feat. Nelly and Pharell) - Tonght
TTITLE6=Gwen Stefani (Feat. Eve) - Rich Girl
TTITLE7=Mase (Feat. Rashad) - The Love You Need
TTITLE8=New Edition (Feat. Blake) - Last Time
TTITLE9=Alicia Keys - Karma
TTITLE10=Destiny's Child - Girl
TTITLE11=Ashanti (Feat. TI) - Still Down
TTITLE12=Teedra Moses (Feat. Raphael Saadiq) - Take Me
TTITLE13=Ja Rule - Never Thought
TTITLE14=Tori Alamaze (Feat. Mobb Deep) - Get Away
TTITLE15=Trey Songz - Cheat On You
TTITLE16=Omarion - O
TTITLE17=Fantasia - Truth Is
TTITLE18=Usher (Feat. Ludacris and Lil Jon) - Lovers and Friends
TTITLE19=Gwen Stefani - Luxurious
TTITLE20=Chingy Feat. (Janet Jackson) - Don't Worry
TTITLE21=Joss Stone - Spoiled
TTITLE22=Tarralyn Ramsey - Remedy
EXTD=
EXTT0=
EXTT1=
EXTT2=
EXTT3=
EXTT4=
EXTT5=
EXTT6=
EXTT7=
EXTT8=
EXTT9=
EXTT10=
EXTT11=
EXTT12=
EXTT13=
EXTT14=
EXTT15=
EXTT16=
EXTT17=
EXTT18=
EXTT19=
EXTT20=
EXTT21=
EXTT22=
PLAYORDER=
